# xmcd CD database file
#
# Track frame offsets:
#	150
#	19567
#	28385
#	46277
#	53217
#	74987
#	89710
#	100257
#	118175
#	128062
#	138117
#	150325
#	172747
#	181952
#	200337
#	207760
#	229945
#	245962
#	256610
#	276280
#	286310
#	296532
#
# Disc length: 4121 seconds
#
# Revision: 0
# Processed by: cddbd v1.5.2PL0 Copyright (c) Steve Scherf et al.
# Submitted via: CDex 1.51
#
DISCID=47101716
DTITLE=June Christy - Something Cool
DYEAR=1960
DGENRE=Jazz
TTITLE0=Something Cool
TTITLE1=It Could Happen To You
TTITLE2=Lonely House
TTITLE3=This Time The Dream's On Me
TTITLE4=The Night We Called It A Day
TTITLE5=Midnight Sun
TTITLE6=I'll Take Romance
TTITLE7=A Stranger Called the Blues
TTITLE8=I Should Care
TTITLE9=Softly As A Morning Sunrise
TTITLE10=I'm Thrilled
TTITLE11=Something Cool
TTITLE12=It Could Happen To You
TTITLE13=Lonely House
TTITLE14=This Time The Dream's On Me
TTITLE15=The Night We Called It A Day
TTITLE16=Midnight Sun
TTITLE17=I'll Take Romance
TTITLE18=A Stranger Called the Blues
TTITLE19=I Should Care
TTITLE20=Softly As In A Morning Sunrise
TTITLE21=I'm Thrilled
EXTD=YEAR: 1960
EXTT0=
EXTT1=
EXTT2=
EXTT3=
EXTT4=
EXTT5=
EXTT6=
EXTT7=
EXTT8=
EXTT9=
EXTT10=
EXTT11=
EXTT12=
EXTT13=
EXTT14=
EXTT15=
EXTT16=
EXTT17=
EXTT18=
EXTT19=
EXTT20=
EXTT21=
PLAYORDER=
